<?xml version="1.0" encoding="UTF-8"?>
<svg id="Layer_1" xmlns="http://www.w3.org/2000/svg" viewBox="0 0 997.57 192.41">
  <defs>
    <style>
      .cls-1 {
        fill: #48009f;
      }

      .cls-2 {
        fill: #565656;
      }
    </style>
  </defs>
  <g>
    <path class="cls-2" d="M90.03,142.78s-.07,0,0,0c12.93-3.2,24.49-9.95,33.64-19.11,9.16-9.16,15.84-20.71,19.11-33.64l9.16,31.68,12.28,42.51h0l-42.51-12.28-31.68-9.16h0Z"/>
    <path class="cls-1" d="M96.2,192.41C43.09,192.41,0,149.32,0,96.2c0-4.29.29-8.57.87-12.72h0C6.54,40.55,40.55,6.47,83.56.8h0c4.14-.58,8.43-.8,12.72-.8,53.12,0,96.2,43.09,96.2,96.2,0,18.53-5.23,35.89-14.31,50.57l-23.25-68.59c-.36-1.09-.73-2.25-1.16-3.34-2.47-6.54-5.96-12.64-10.39-17.87-11.26-13.44-28.19-22.02-47.08-22.02-33.86,0-61.25,27.47-61.25,61.33,0,18.89,8.57,35.82,22.02,47.08,5.3,4.43,11.34,7.99,17.95,10.46,1.09.44,2.18.8,3.27,1.09l68.52,23.32c-14.75,8.94-32.04,14.17-50.57,14.17h0Z"/>
  </g>
  <g>
    <path class="cls-1" d="M318.18,126.21l19.69,25.14h-30.95l-10.32-15.48c-2.91.51-5.81.8-8.86.8-26.45,0-47.88-19.84-47.88-47.88s21.44-47.74,47.88-47.74,47.74,19.69,47.74,47.74c0,15.77-6.76,28.99-17.29,37.42h0ZM287.74,112.63c13.37,0,21.44-9.37,21.44-23.83s-8.07-23.98-21.44-23.98-21.44,9.3-21.44,23.98,7.92,23.83,21.44,23.83Z"/>
    <path class="cls-1" d="M346.89,42.51h25.79v54.13c0,9.66,4.36,15.77,14.17,15.77s14.39-6.1,14.39-15.77v-54.13h25.94v54.13c0,26.59-18.53,40.11-40.91,40.11s-39.38-13.52-39.38-40.11v-54.13h0Z"/>
    <path class="cls-1" d="M500.49,120.55h-33.06l-5.01,15.19h-27.25l34.01-93.3h29.94l33.79,93.37h-27.39l-5.01-15.26h0ZM484,70.55l-9.95,30.15h19.98l-10.03-30.15Z"/>
    <path class="cls-1" d="M627,89.08c0,26.96-18.89,46.72-48.68,46.72h-36.91V42.51h36.91c29.79,0,48.68,19.18,48.68,46.58h0ZM576.35,112.84c14.97,0,24.34-8.5,24.34-23.83s-9.37-24.05-24.34-24.05h-9.01v47.88h9.01Z"/>
    <path class="cls-1" d="M679.53,42.51c23.18,0,34.8,13.22,34.8,29.94,0,12.21-6.61,22.74-20.49,26.96l21.07,36.4h-28.99l-18.53-34.44h-2.76v34.44h-25.94V42.51h40.84ZM677.42,64.16h-12.86v19.47h12.86c7.05,0,10.61-3.42,10.61-9.81,0-5.81-3.56-9.66-10.61-9.66h0Z"/>
    <path class="cls-1" d="M785.18,120.55h-33.06l-5.01,15.19h-27.25l34.01-93.3h29.94l33.86,93.3h-27.39l-5.09-15.19h0ZM768.61,70.55l-9.95,30.15h19.98l-10.03-30.15Z"/>
    <path class="cls-1" d="M912.48,42.51v93.3h-25.94l-34.51-52.17v52.17h-25.94V42.51h25.94l34.51,52.82v-52.82h25.94Z"/>
    <path class="cls-1" d="M922.15,42.51h75.42v20.64h-24.85v72.66h-25.94V63.14h-24.63v-20.64h0Z"/>
  </g>
</svg>